<svg id="fi_12693247" fill="#008bd0" width="60px" height="60px" enable-background="new 0 0 512 512" viewBox="0 0 512 512" xmlns="http://www.w3.org/2000/svg"><g><path d="m0 33.28v415.44h139.333v30h233.333v-30h139.334v-415.44zm482 30v142.98c-24.393-2.375-47.8-10.508-68.426-23.913-21.648-14.069-39.298-33.248-51.496-55.805 13.398-18.112 22.27-39.759 24.943-63.263h94.979zm-289.965 295.44h127.93v24.396h-127.93zm-77.874-41.209v-109.618c.204-.131.409-.258.612-.39 23.088-15.004 42.371-34.878 56.618-58.147 22.917 19.215 52.433 30.803 84.609 30.803s61.692-11.589 84.608-30.803c14.247 23.269 33.531 43.143 56.618 58.147.203.132.408.259.612.39v109.619h-283.677zm242.616-254.231c-7.275 49.09-49.696 86.879-100.777 86.879-51.082 0-93.503-37.789-100.778-86.879zm-231.798 0c2.673 23.504 11.545 45.151 24.943 63.263-12.198 22.558-29.847 41.737-51.496 55.805-20.626 13.404-44.033 21.538-68.426 23.912v-142.98zm-94.979 173.113c18.691-1.519 36.93-5.872 54.161-12.893v94.011h-54.161zm0 182.327v-60h132.035v24.396h-22.701v35.605h-109.334zm312.666 30h-173.333v-35.605h173.333zm139.334-30h-109.334v-35.605h-22.701v-24.395h132.035zm-54.162-101.209v-94.011c17.232 7.021 35.471 11.374 54.162 12.893v81.118z"></path></g><g></g><g></g><g></g><g></g><g></g><g></g><g></g><g></g><g></g><g></g><g></g><g></g><g></g><g></g><g></g></svg>