 <svg height="60px" fill="#008bd0" viewBox="0 0 32 32" width="60px" xmlns="http://www.w3.org/2000/svg" id="fi_8789345"><g id="_x31_0"><path d="m21 19c0 2.7568359-2.2431641 5-5 5s-5-2.2431641-5-5h-6v2c0 .5522461.4472656 1 1 1h1.5224609c.1054688.2973633.2265625.5888672.3613281.8730469l-1.0761718 1.0766601c-.1875.1875-.2929688.4418945-.2929688.7070313s.1054688.5195313.2929688.7070313l2.828125 2.8286133c.390625.390625 1.0234375.390625 1.4140625 0l1.0771484-1.0761719c.2841797.1352538.5751953.2558593.8730469.3613281v1.5224609c0 .5522461.4472656 1 1 1h4c.5527344 0 1-.4477539 1-1v-1.5224609c.2978516-.1054688.5888672-.2260742.8730469-.3613281l1.0771484 1.0761719c.390625.390625 1.0234375.390625 1.4140625 0l2.828125-2.8286133c.1875-.1875.2929688-.4418945.2929688-.7070313s-.1054688-.5195313-.2929688-.7070313l-1.0761719-1.0766602c.1347657-.2841796.2558594-.5756835.3613282-.8730468h1.5224609c.5527344 0 1-.4477539 1-1v-2z"></path><path d="m16 23c2.2091675 0 4-1.7908325 4-4h-8c0 2.2091675 1.7908325 4 4 4z"></path><path d="m29 16h-4v-7l-4-2v9h-1v-12l-4-2-4 2v12h-1v-9l-4 2v7h-4c-.5523071 0-1 .4476929-1 1 0 .5522461.4476929 1 1 1h26c.5523071 0 1-.4477539 1-1 0-.5523071-.4476929-1-1-1zm-7-5.5c0-.276123.223877-.5.5-.5h1c.276123 0 .5.223877.5.5v1c0 .276123-.223877.5-.5.5h-1c-.276123 0-.5-.223877-.5-.5zm0 4v-1c0-.276123.223877-.5.5-.5h1c.276123 0 .5.223877.5.5v1c0 .276123-.223877.5-.5.5h-1c-.276123 0-.5-.223877-.5-.5zm-5-8c0-.276123.223877-.5.5-.5h1c.276123 0 .5.223877.5.5v1c0 .276123-.223877.5-.5.5h-1c-.276123 0-.5-.223877-.5-.5zm0 3c0-.276123.223877-.5.5-.5h1c.276123 0 .5.223877.5.5v1c0 .276123-.223877.5-.5.5h-1c-.276123 0-.5-.223877-.5-.5zm-4-3c0-.276123.223877-.5.5-.5h1c.276123 0 .5.223877.5.5v1c0 .276123-.223877.5-.5.5h-1c-.276123 0-.5-.223877-.5-.5zm0 3c0-.276123.223877-.5.5-.5h1c.276123 0 .5.223877.5.5v1c0 .276123-.223877.5-.5.5h-1c-.276123 0-.5-.223877-.5-.5zm2.5 3.5h1c.2761421 0 .5.2238579.5.5v2.5h-2v-2.5c0-.2761421.2238579-.5.5-.5zm-7.5-2.5c0-.276123.223877-.5.5-.5h1c.276123 0 .5.223877.5.5v1c0 .276123-.223877.5-.5.5h-1c-.276123 0-.5-.223877-.5-.5zm0 4v-1c0-.276123.223877-.5.5-.5h1c.276123 0 .5.223877.5.5v1c0 .276123-.223877.5-.5.5h-1c-.276123 0-.5-.223877-.5-.5z"></path></g></svg>