<svg height="60px" fill="#008bd0" viewBox="0 0 64 64" width="60px" xmlns="http://www.w3.org/2000/svg" id="fi_2253798"><g id="temperature_warehouse" data-name="temperature  warehouse"><path d="m61.527 20.15-29-18a1 1 0 0 0 -1.054 0l-29 18a1 1 0 0 0 -.473.85v40a1 1 0 0 0 1 1h58a1 1 0 0 0 1-1v-40a1 1 0 0 0 -.473-.85zm-53.527 5.85v-2h48v2zm46 2v32h-44v-32zm6 32h-4v-32h1a1 1 0 0 0 1-1v-4a1 1 0 0 0 -1-1h-50a1 1 0 0 0 -1 1v4a1 1 0 0 0 1 1h1v32h-4v-38.443l28-17.38 28 17.38z"></path><path d="m24 13v4a1 1 0 0 0 1 1h14a1 1 0 0 0 1-1v-4a1 1 0 0 0 -1-1h-14a1 1 0 0 0 -1 1zm2 1h12v2h-12z"></path><path d="m29 8h6v2h-6z"></path><path d="m12.293 46.293 1.414 1.414 2.707-2.707h1.586v1h2v-1h2.142a3.94 3.94 0 0 0 .4.973l-1.527 1.527-.672-.672-1.414 1.414.672.672-1.086 1.086h-3.515v2h3v3h2v-3.657l1.015-1.015.742.743 1.414-1.414-.742-.743 1.506-1.506a3.941 3.941 0 0 0 1.065.45v2.142h-1v2h1v1.586l-2.707 2.707 1.414 1.414 2.293-2.293 2.293 2.293 1.414-1.414-2.707-2.707v-1.586h1v-2h-1v-2.142a3.94 3.94 0 0 0 .973-.4l1.527 1.527-.671.672 1.414 1.414.671-.672 1.086 1.086v3.515h2v-3h3v-2h-3.657l-1.015-1.015.743-.743-1.414-1.414-.743.743-1.506-1.506a3.955 3.955 0 0 0 .45-1.065h2.142v1h2v-1h1.586l2.707 2.707 1.414-1.414-2.293-2.293 2.293-2.293-1.414-1.414-2.707 2.707h-1.586v-1h-2v1h-2.142a3.94 3.94 0 0 0 -.4-.973l1.527-1.527.672.672 1.414-1.414-.672-.672 1.086-1.086h3.515v-2h-3v-3h-2v3.657l-1.015 1.015-.742-.743-1.414 1.414.742.743-1.506 1.506a3.941 3.941 0 0 0 -1.065-.45v-2.142h1v-2h-1v-1.586l2.707-2.707-1.414-1.414-2.293 2.293-2.293-2.293-1.414 1.414 2.707 2.707v1.586h-1v2h1v2.142a3.94 3.94 0 0 0 -.973.4l-1.527-1.527.671-.672-1.414-1.414-.671.672-1.086-1.086v-3.515h-2v3h-3v2h3.657l1.015 1.015-.743.743 1.414 1.414.743-.743 1.506 1.506a3.955 3.955 0 0 0 -.45 1.065h-2.142v-1h-2v1h-1.586l-2.707-2.707-1.414 1.414 2.293 2.293zm15.707-2.293a2 2 0 1 1 -2-2 2 2 0 0 1 2 2z"></path><path d="m45 59a4.986 4.986 0 0 0 3-8.979v-17.021a3 3 0 0 0 -6 0v17.021a4.986 4.986 0 0 0 3 8.979zm-1.5-7.581a1 1 0 0 0 .5-.864v-17.555a1 1 0 0 1 2 0v17.555a1 1 0 0 0 .5.864 2.968 2.968 0 0 1 1.5 2.581 3 3 0 0 1 -6 0 2.968 2.968 0 0 1 1.5-2.581z"></path><path d="m44 53h2v2h-2z"></path><path d="m50 33h2v2h-2z"></path><path d="m50 37h2v2h-2z"></path><path d="m50 41h2v2h-2z"></path><path d="m50 45h2v2h-2z"></path></g></svg>