<svg id="fi_10184517" height="60px"  fill="#008bd0"  viewBox="0 0 64 64" width="60px" xmlns="http://www.w3.org/2000/svg"><g style="stroke:#231f20;stroke-linecap:round;stroke-linejoin:round;stroke-miterlimit:10;stroke-width:1.5"><path d="m1 59.1v-5.4c0-1.5 1.2-2.7 2.7-2.7h7c1.5 0 2.7 1.2 2.7 2.7v5.4"></path><path d="m17.5 59.1v-5.4c0-1.5 1.2-2.7 2.7-2.7h7c1.5 0 2.7 1.2 2.7 2.7v5.4"></path><path d="m34 59.1v-5.4c0-1.5 1.2-2.7 2.7-2.7h7c1.5 0 2.7 1.2 2.7 2.7v5.4"></path><path d="m50.6 59.1v-5.4c0-1.5 1.2-2.7 2.7-2.7h7c1.5 0 2.7 1.2 2.7 2.7v5.4"></path><path d="m9.3 48.7v-2.4c0-1.5 1.2-2.7 2.7-2.7h7c1.5 0 2.7 1.2 2.7 2.7v2.4"></path><path d="m25.8 48.7v-2.4c0-1.5 1.2-2.7 2.7-2.7h7c1.5 0 2.7 1.2 2.7 2.7v2.4"></path><path d="m42.3 48.7v-2.4c0-1.5 1.2-2.7 2.7-2.7h7c1.5 0 2.7 1.2 2.7 2.7v2.4"></path><path d="m63 10.4v33.1c-6.2-5.2-10.3-14.4-10.3-24.9 0-.4 0-.8 0-1.2"></path><path d="m11.3 17.5v1.2c0 10.5-4.1 19.7-10.3 24.9v-33.2"></path><path d="m1 4.9c3.3 6.2 9 10.3 15.5 10.3s12.2-4.1 15.5-10.3z"></path><path d="m32 4.9c3.3 6.2 9 10.3 15.5 10.3s12.2-4.1 15.5-10.3z"></path><circle cx="32" cy="26.6" r="7.8"></circle><path d="m35.1 25.9-3.3-2.9c-.6-.5-1.6-.1-1.6.8v5.7c0 .8 1 1.3 1.6.8l3.3-2.8c.5-.5.5-1.2 0-1.6z"></path></g></svg>