 <svg id="fi_5759218" fill="#008bd0" enable-background="new 0 0 511.996 511.996" height="60px" viewBox="0 0 511.996 511.996" width="60px" xmlns="http://www.w3.org/2000/svg"><g><path d="m85.155 341.161c12.699 0 23.031-10.332 23.031-23.031s-10.332-23.031-23.031-23.031-23.03 10.332-23.03 23.031c0 12.7 10.331 23.031 23.03 23.031zm0-31.062c4.429 0 8.031 3.603 8.031 8.031s-3.603 8.031-8.031 8.031-8.03-3.603-8.03-8.031 3.603-8.031 8.03-8.031z"></path><path d="m426.841 264.037h-341.686c-29.827 0-54.093 24.266-54.093 54.093 0 29.828 24.266 54.094 54.093 54.094.18 0 74.173-.003 74.173-.003 4.143 0 7.5-3.358 7.5-7.5s-3.357-7.5-7.5-7.5h-36.819c10.309-9.855 16.74-23.736 16.74-39.091 0-15.356-6.432-29.238-16.743-39.093h96.141c-10.311 9.856-16.743 23.737-16.743 39.093 0 15.355 6.431 29.235 16.74 39.091h-26.636c-4.143 0-7.5 3.358-7.5 7.5s3.357 7.5 7.5 7.5h234.293c.18.002.359.003.54.003 29.827 0 54.093-24.266 54.093-54.094 0-29.827-24.266-54.093-54.093-54.093zm-302.592 54.093c0 21.404-17.29 38.845-38.637 39.091h-.454c-.052 0-.103.001-.155.002-21.486-.082-38.941-17.587-38.941-39.093 0-21.556 17.537-39.093 39.093-39.093 21.557 0 39.094 17.537 39.094 39.093zm92.655 0c0-21.556 17.537-39.093 39.094-39.093s39.094 17.537 39.094 39.093c0 21.404-17.29 38.845-38.637 39.091h-.914c-21.347-.246-38.637-17.688-38.637-39.091zm76.448 39.091c10.309-9.855 16.74-23.736 16.74-39.091 0-15.356-6.432-29.238-16.743-39.093h96.141c-10.311 9.856-16.743 23.737-16.743 39.093 0 15.355 6.431 29.235 16.74 39.091zm133.641.002c-.052-.001-.103-.002-.155-.002h-.454c-21.347-.246-38.637-17.687-38.637-39.091 0-21.556 17.537-39.093 39.094-39.093 21.556 0 39.093 17.537 39.093 39.093 0 21.505-17.455 39.01-38.941 39.093z"></path><path d="m426.841 295.099c-12.699 0-23.031 10.332-23.031 23.031 0 12.7 10.332 23.031 23.031 23.031s23.03-10.332 23.03-23.031-10.331-23.031-23.03-23.031zm0 31.062c-4.429 0-8.031-3.603-8.031-8.031s3.603-8.031 8.031-8.031 8.03 3.603 8.03 8.031-3.602 8.031-8.03 8.031z"></path><path d="m279.029 318.13c0-12.699-10.332-23.031-23.031-23.031s-23.031 10.332-23.031 23.031c0 12.7 10.332 23.031 23.031 23.031s23.031-10.331 23.031-23.031zm-31.062 0c0-4.428 3.603-8.031 8.031-8.031s8.031 3.603 8.031 8.031-3.603 8.031-8.031 8.031-8.031-3.603-8.031-8.031z"></path><path d="m426.841 232.975h-8.033v-38.285c0-4.142-3.357-7.5-7.5-7.5s-7.5 3.358-7.5 7.5v38.27h-109.25v-109.25h31.596v23.567c0 4.142 3.357 7.5 7.5 7.5h31.053c4.143 0 7.5-3.358 7.5-7.5v-23.567h31.602v38.29c0 4.142 3.357 7.5 7.5 7.5s7.5-3.358 7.5-7.5v-45.79c0-4.142-3.357-7.5-7.5-7.5h-124.25c-4.143 0-7.5 3.358-7.5 7.5v116.764h-47.119v-38.284c0-4.142-3.357-7.5-7.5-7.5s-7.5 3.358-7.5 7.5v38.27h-109.25v-109.25h31.602v23.567c0 4.142 3.357 7.5 7.5 7.5h31.053c4.143 0 7.5-3.358 7.5-7.5v-23.567h31.596v38.29c0 4.142 3.357 7.5 7.5 7.5s7.5-3.358 7.5-7.5v-45.79c0-4.142-3.357-7.5-7.5-7.5h-124.25c-4.143 0-7.5 3.358-7.5 7.5v116.764h-8.033c-46.958.001-85.158 38.201-85.158 85.156s38.2 85.156 85.155 85.156h341.686c46.955 0 85.155-38.201 85.155-85.156s-38.2-85.155-85.155-85.155zm-69.635-93.198h-16.053v-16.052h16.053zm-186.363 0h-16.053v-16.052h16.053zm255.998 248.509h-341.686c-38.683 0-70.155-31.472-70.155-70.156s31.472-70.155 70.155-70.155h341.686c38.684 0 70.155 31.472 70.155 70.155 0 38.684-31.472 70.156-70.155 70.156z"></path></g></svg>