<svg id="fi_18335897" width="60px" height="60px" fill="#008bd0" enable-background="new 0 0 64 64" viewBox="0 0 64 64" xmlns="http://www.w3.org/2000/svg"><path d="m25 21.9999447c.5527344 0 1 .4477539 1 1v20.9999981c0 .5522461-.4472656 1-1 1s-1-.4477539-1-1v-20.9999981c0-.5522461.4472656-1 1-1zm6 1v20.9999981c0 .5522461.4472656 1 1 1s1-.4477539 1-1v-20.9999981c0-.5522461-.4472656-1-1-1s-1 .4477539-1 1zm9 0c0-.5522461-.4472656-1-1-1s-1 .4477539-1 1v14.9999981c0 .5522461.4472656 1 1 1s1-.4477539 1-1zm22 37.9999981c0 .5522461-.4472656 1-1 1h-5-11-26-11-5c-.5527344 0-1-.4477539-1-1s.4472656-1 1-1h4v-26h-2c-.5527344 0-1-.4477539-1-1s.4472656-.9999981 1-.9999981h3 7c.5527344 0 1 .447752 1 .9999981s-.4472656 1-1 1h-6v3h6c.5527344 0 1 .4477539 1 1s-.4472656 1-1 1h-6v4h6c.5527344 0 1 .4477539 1 1s-.4472656 1-1 1h-6v4h6c.5527344 0 1 .4477539 1 1s-.4472656 1-1 1h-6v4h6c.5527344 0 1 .4477539 1 1s-.4472656 1-1 1h-6v3h9v-42c0-.5522461.4472656-1 1-1h12v-4-2-8c0-.3466797.1796875-.668457.4746094-.8505859.2949219-.1826171.6630859-.1982421.9726562-.0439453l10 5c.3388672.169435.5527344.5156264.5527344.8945326 0 .3789067-.2138672.7250981-.5527344.8945317l-9.4472656 4.7236328v3.3818359h12c.5527344 0 1 .4477539 1 1v5c0 .5522461-.4472656 1-1 1s-1-.4477539-1-1v-4h-24v41h6v-11c0-.5522461.4472656-1 1-1h10c.5527344 0 1 .4477539 1 1v11h6v-27-5.9999981c0-.5522461.4472656-1 1-1s1 .4477539 1 1v5h10 3c.5527344 0 1 .447752 1 .9999981s-.4472656 1-1 1h-2v26h4c.5527344-.0000018 1 .4477521 1 .9999982zm-29-49.6181622 6.7636719-3.3818364-6.7636719-3.3818359v6.3818364zm3 38.6181622h-8v10h8zm19-16h-9v26h9v-3h-6c-.5527344 0-1-.4477539-1-1s.4472656-1 1-1h6v-4h-6c-.5527344 0-1-.4477539-1-1s.4472656-1 1-1h6v-4h-6c-.5527344 0-1-.4477539-1-1s.4472656-1 1-1h6v-4h-6c-.5527344 0-1-.4477539-1-1s.4472656-1 1-1h6zm-16 7c-.5527344 0-1 .4477539-1 1v2c0 .5522461.4472656 1 1 1s1-.4477539 1-1v-2c0-.5522461-.4472656-1-1-1z"></path></svg>