 <svg id="fi_3105132" fill="#008bd0" enable-background="new 0 0 512.005 512.005" height="60px" viewBox="0 0 512.005 512.005" width="60px" xmlns="http://www.w3.org/2000/svg"><g id="XMLID_1480_"><g id="XMLID_645_"><path id="XMLID_793_" d="m444.163 368.44c-18.852 1.488-37.084 10.158-51.34 24.413-3.394 3.394-6.46 7.02-9.199 10.819-2.899-6.49-6.926-12.492-12.14-17.707-12.837-12.837-30.617-19.054-50.06-17.525-18.852 1.488-37.084 10.158-51.339 24.413-3.409 3.409-6.45 7.029-9.157 10.793-2.949-6.547-7.021-12.519-12.183-17.681-12.836-12.837-30.618-19.062-50.059-17.525-18.851 1.488-37.083 10.158-51.339 24.413-3.409 3.409-6.451 7.029-9.158 10.793-2.949-6.547-7.021-12.518-12.183-17.681-12.836-12.836-30.612-19.049-50.06-17.525-18.851 1.488-37.083 10.158-51.339 24.413-29.854 29.855-32.944 75.343-6.888 101.398 11.558 11.558 27.118 17.754 44.298 17.754 1.9 0 3.824-.076 5.761-.229 18.851-1.488 37.083-10.158 51.339-24.413 3.394-3.394 6.46-7.019 9.199-10.818 2.899 6.49 6.926 12.492 12.141 17.707 11.558 11.558 27.119 17.754 44.298 17.754 1.901 0 3.824-.076 5.761-.229 18.851-1.488 37.083-10.158 51.338-24.413 3.394-3.393 6.46-7.018 9.199-10.818 2.899 6.49 6.926 12.492 12.141 17.707 11.869 11.868 27.765 17.689 44.383 17.689 19.865 0 40.76-8.321 57.016-24.577 3.409-3.409 6.451-7.029 9.158-10.793 2.949 6.547 7.021 12.519 12.183 17.681 11.558 11.558 27.118 17.754 44.298 17.754 1.9 0 3.824-.076 5.761-.229 18.852-1.488 37.084-10.158 51.339-24.413s22.925-32.487 24.413-51.339c1.535-19.444-4.688-37.223-17.524-50.059-12.836-12.838-30.614-19.051-50.058-17.527zm-37.198 38.555c10.892-10.892 24.661-17.504 38.77-18.617 1.39-.11 2.763-.164 4.121-.164 10.314 0 19.684 3.141 27.045 9.05-2.106 18.457-17.813 32.843-36.824 32.843-21.982 0-41.088 12.501-50.618 30.759-1.135-4.745-1.528-9.82-1.111-15.101 1.113-14.109 7.726-27.878 18.617-38.77zm-122.738 0c10.892-10.892 24.66-17.504 38.771-18.617 1.389-.11 2.762-.164 4.121-.164 10.314 0 19.684 3.141 27.045 9.05-2.106 18.457-17.813 32.843-36.824 32.843-21.981 0-41.086 12.499-50.617 30.755-4.169-17.382 1.935-38.298 17.504-53.867zm-122.738 0c10.892-10.892 24.661-17.504 38.77-18.617 1.389-.11 2.762-.164 4.121-.164 10.314 0 19.684 3.141 27.045 9.05-2.106 18.457-17.812 32.843-36.824 32.843-21.981 0-41.087 12.499-50.617 30.755-4.169-17.381 1.935-38.297 17.505-53.867zm-122.74 0c10.892-10.892 24.661-17.504 38.771-18.617 1.389-.11 2.762-.164 4.121-.164 10.314 0 19.684 3.141 27.045 9.05-2.106 18.457-17.812 32.844-36.824 32.844-21.981 0-41.086 12.499-50.617 30.755-4.169-17.382 1.936-38.298 17.504-53.868zm66.226 66.225c-10.892 10.893-24.661 17.504-38.77 18.618-11.94.941-22.836-2.201-31.165-8.89 2.107-18.455 17.813-32.841 36.823-32.841 21.982 0 41.089-12.5 50.619-30.759 1.135 4.745 1.528 9.82 1.111 15.102-1.115 14.11-7.726 27.878-18.618 38.77zm122.739 0c-10.893 10.892-24.661 17.504-38.771 18.618-11.93.942-22.834-2.2-31.165-8.89 2.108-18.455 17.813-32.841 36.824-32.841 21.982 0 41.089-12.5 50.619-30.758 1.135 4.744 1.528 9.819 1.111 15.101-1.115 14.11-7.727 27.878-18.618 38.77zm122.738 0c-20.832 20.831-51.24 24.736-69.935 9.723 2.11-18.452 17.815-32.835 36.823-32.835 21.981 0 41.086-12.499 50.617-30.754 4.168 17.38-1.936 38.296-17.505 53.866zm141.356-38.77c-1.114 14.109-7.726 27.878-18.618 38.77-10.892 10.893-24.66 17.504-38.77 18.618-11.943.941-22.837-2.201-31.165-8.89 2.108-18.455 17.813-32.841 36.823-32.841 21.983 0 41.089-12.5 50.619-30.759 1.135 4.745 1.528 9.82 1.111 15.102z"></path><path id="XMLID_806_" d="m423.97 176c48.523 0 88-39.477 88-88s-39.477-88-88-88-88 39.477-88 88 39.477 88 88 88zm0-156c37.495 0 68 30.505 68 68s-30.505 68-68 68-68-30.505-68-68 30.505-68 68-68z"></path><path id="XMLID_807_" d="m413.97 210v98.54c0 5.522 4.478 10 10 10s10-4.478 10-10v-98.54c0-5.523-4.478-10-10-10s-10 4.477-10 10z"></path><path id="XMLID_808_" d="m194.601 98h107.369c5.522 0 10-4.478 10-10s-4.478-10-10-10h-107.369c-5.523 0-10 4.478-10 10s4.477 10 10 10z"></path><path id="XMLID_809_" d="m493.63 188.655c-2.762-4.781-8.876-6.422-13.66-3.66-4.783 2.762-6.422 8.877-3.66 13.66l17 29.444c1.853 3.208 5.213 5.002 8.67 5.002 1.696 0 3.416-.433 4.99-1.342 4.783-2.762 6.422-8.877 3.66-13.66z"></path><path id="XMLID_810_" d="m326.975 144c-2.762-4.782-8.876-6.421-13.66-3.66l-72.774 42.017c-4.783 2.762-6.422 8.877-3.66 13.66 1.852 3.208 5.213 5.002 8.669 5.002 1.696 0 3.416-.433 4.991-1.342l72.774-42.017c4.783-2.762 6.422-8.877 3.66-13.66z"></path><path id="XMLID_811_" d="m94.841 288.03c1.696 0 3.416-.433 4.991-1.342l72.775-42.017c4.783-2.762 6.422-8.877 3.66-13.66-2.761-4.783-8.879-6.423-13.66-3.66l-72.775 42.017c-4.783 2.762-6.422 8.877-3.66 13.66 1.852 3.208 5.213 5.002 8.669 5.002z"></path><path id="XMLID_812_" d="m283.898 18.677 29.417 16.983c1.575.909 3.294 1.342 4.99 1.342 3.456 0 6.818-1.794 8.67-5.002 2.762-4.783 1.123-10.899-3.66-13.66l-29.417-16.984c-4.784-2.761-10.9-1.122-13.66 3.66-2.762 4.784-1.123 10.9 3.66 13.661z"></path><path id="XMLID_813_" d="m292.973 314.893c1.575.909 3.294 1.342 4.99 1.342 3.456 0 6.817-1.794 8.67-5.002l64.997-112.577c2.762-4.783 1.123-10.898-3.66-13.66-4.785-2.762-10.898-1.122-13.66 3.66l-64.997 112.577c-2.762 4.783-1.123 10.898 3.66 13.66z"></path><path id="XMLID_814_" d="m423.97 67c11.579 0 21 9.421 21 21 0 5.522 4.478 10 10 10s10-4.478 10-10c0-22.607-18.393-41-41-41-5.522 0-10 4.478-10 10s4.478 10 10 10z"></path><path id="XMLID_815_" d="m199.5 206.439c-1.86 1.86-2.93 4.44-2.93 7.07s1.07 5.21 2.93 7.07c1.87 1.87 4.44 2.939 7.07 2.939s5.21-1.069 7.07-2.939c1.87-1.86 2.93-4.44 2.93-7.07s-1.06-5.2-2.93-7.07c-1.86-1.859-4.44-2.93-7.07-2.93-2.63.001-5.21 1.071-7.07 2.93z"></path></g></g></svg>