<svg clip-rule="evenodd" width="60px" height="60px" fill="#008bd0" fill-rule="evenodd" stroke-linejoin="round" stroke-miterlimit="2" viewBox="0 0 64 64" xmlns="http://www.w3.org/2000/svg" id="fi_10363073"><g><path d="m60 61h-56c-.552 0-1-.448-1-1v-6c0-.552.448-1 1-1h3v-6c0-.334.167-.647.445-.832l5.555-3.703v-38.465c0-.552.448-1 1-1h36c.552 0 1 .448 1 1v38.465l5.555 3.703c.278.185.445.498.445.832v6h3c.552 0 1 .448 1 1v6c0 .552-.448 1-1 1zm-53-6h-2v4h2zm6-10.131-4 2.666v11.465h4zm2-25.869v40h7v-17c0-.552.448-1 1-1h18c.552 0 1 .448 1 1v17h7v-40zm34-2v-12h-34v12zm2 27.869v14.131h4v-11.465zm6 14.131h2v-4h-2zm-24 0h7v-16h-7zm-9 0h7v-16h-7zm1-37v16c0 .552-.448 1-1 1h-6c-.552 0-1-.448-1-1v-16c0-.552.448-1 1-1h6c.552 0 1 .448 1 1zm-2 1h-4v14h4zm24-1v16c0 .552-.448 1-1 1h-6c-.552 0-1-.448-1-1v-16c0-.552.448-1 1-1h6c.552 0 1 .448 1 1zm-2 1h-4v14h4zm-9-1v16c0 .552-.448 1-1 1h-6c-.552 0-1-.448-1-1v-16c0-.552.448-1 1-1h6c.552 0 1 .448 1 1zm-2 1h-4v14h4zm-15-9c0 .552-.448 1-1 1s-1-.448-1-1v-6c0-.404.244-.769.617-.924.374-.155.804-.069 1.09.217l1.293 1.293 1.293-1.293c.286-.286.716-.372 1.09-.217.373.155.617.52.617.924v6c0 .552-.448 1-1 1s-1-.448-1-1v-3.586l-.293.293c-.39.391-1.024.391-1.414 0l-.293-.293zm19-1c.552 0 1 .448 1 1s-.448 1-1 1h-4c-.552 0-1-.448-1-1v-6c0-.552.448-1 1-1s1 .448 1 1v5zm8 0c.552 0 1 .448 1 1s-.448 1-1 1h-4c-.552 0-1-.448-1-1v-6c0-.552.448-1 1-1s1 .448 1 1v5zm-18.82 0-.194 1.164c-.09.545-.606.913-1.15.822-.545-.09-.913-.606-.822-1.15 0 0 .334-2.007.336-2.017l.664-3.983c.08-.483.497-.836.986-.836h2c.489 0 .906.353.986.836 0 0 .668 4.004.67 4.015l.33 1.985c.091.544-.277 1.06-.822 1.15-.544.091-1.06-.277-1.15-.822 0 0-.082-.488-.194-1.164zm1.306-2c-.178-1.07-.333-2-.333-2h-.306l-.333 2z"></path></g></svg>