<svg id="fi_3008476" height="60px" fill="#008bd0" viewBox="0 0 64 64" width="60px" xmlns="http://www.w3.org/2000/svg" data-name="1 Solid"><path d="m4 6v12h3v4h2v-4h14v4h2v-4h3v-12zm21 9h-18v-2h18zm0-4h-18v-2h18z"></path><path d="m4 24h56v2h-56z"></path><path d="m32 5h28v2h-28z"></path><path d="m4 59h5v-12h6v12h2v-12h6v12h26v-12h6v12h5v-31l-56-1zm45-28h6v3h-6zm0 10h6v3h-6zm-14 10h-6v-4h6zm8 0h-6v-4h6zm-2-20h6v3h-6zm0 10h6v3h-6zm-8-10h6v3h-6zm0 10h6v3h-6zm-8-10h6v3h-6zm0 10h6v3h-6zm-8-10h6v3h-6zm0 10h6v3h-6zm-8-10h6v3h-6zm40 5h6v3h-6zm-8 0h6v3h-6zm-8 0h6v3h-6zm-8 0h6v3h-6zm-8 0h6v3h-6zm-8 0h6v3h-6zm0 5h6v3h-6z"></path><path d="m59 13.5v-4.5h-26v4.5 5 3.5h26v-3.5zm-18 6.5h-6v-3.5h6zm0-5.5h-6v-3.5h6zm8 5.5h-6v-3.5h6zm0-5.5h-6v-3.5h6zm8 5.5h-6v-3.5h6zm0-5.5h-6v-3.5h6z"></path></svg>