<svg xmlns="http://www.w3.org/2000/svg" viewBox="0 0 64 64" fill="#008bd0" width="60px" height="60px" id="fi_2434676"><g id="stadium"><path d="M53,19.27V15h6a1,1,0,0,0,.58-1.81c-7.4-5.29-7.27-5.43-8-5.1S51,8.44,51,18.81a84.42,84.42,0,0,0-13-1.64V16h2a1,1,0,0,0,1-1V9a1,1,0,0,0-1-1H24a1,1,0,0,0-1,1v6a1,1,0,0,0,1,1h2v1.17a84.42,84.42,0,0,0-13,1.64c0-10.31.21-10.31-.54-10.7s-.73-.15-8,5.08a1,1,0,0,0-.37,1.12c.3.92.63.69,7,.69v4.27C5.06,20.79,1,23.06,1,26V47c0,12,62,11.83,62,0V26C63,23.06,58.94,20.79,53,19.27ZM53,13V10.94L55.88,13ZM8.12,13,11,10.94V13ZM61,29.37V37c0,5.85-33.8,10.15-52.1,4C5.2,39.82,3,38.31,3,37V29.37C12.72,37,51.54,36.76,61,29.37ZM49.37,31.5a101.56,101.56,0,0,1-34.74,0A101.32,101.32,0,0,1,49.37,31.5ZM25,10H39v4H25Zm3,6h8v1.08c-2.71-.1-5.28-.11-8,0Zm4,3c19.42,0,40.32,6.12,21.76,11.46A59.77,59.77,0,0,0,46.44,29l4.27-4.27a1,1,0,0,0-1.42-1.42l-5.35,5.36A107.39,107.39,0,0,0,33,28V22a1,1,0,0,0-2,0v6a107.39,107.39,0,0,0-10.94.64l-5.35-5.36a1,1,0,0,0-1.42,1.42L17.56,29a59.77,59.77,0,0,0-7.32,1.48C-8.33,25.11,12.57,19,32,19Zm5,34.88c-3.29.15-6.16.17-10,0V50H37ZM61,47c0,2.62-8.39,5.89-22,6.77V49a1,1,0,0,0-1-1H26a1,1,0,0,0-1,1v4.77C11.39,52.89,3,49.62,3,47V40.39c9.64,7.48,48.41,7.45,58,0Z"></path><path d="M31,38.5v3a1,1,0,0,0,2,0v-3A1,1,0,0,0,31,38.5Z"></path><path d="M41,38v3a1,1,0,0,0,2,0V38A1,1,0,0,0,41,38Z"></path><path d="M21,38v3a1,1,0,0,0,2,0V38A1,1,0,0,0,21,38Z"></path><path d="M12,36v3a1,1,0,0,0,2,0V36A1,1,0,0,0,12,36Z"></path><path d="M5,34v3a1,1,0,0,0,2,0V34A1,1,0,0,0,5,34Z"></path><path d="M50,36v3a1,1,0,0,0,2,0V36A1,1,0,0,0,50,36Z"></path><path d="M57,34v3a1,1,0,0,0,2,0V34A1,1,0,0,0,57,34Z"></path></g></svg>