 <svg id="fi_17278966" fill="#008bd0" width="60px" height="60px" enable-background="new 0 0 512 512" viewBox="0 0 512 512" xmlns="http://www.w3.org/2000/svg"><path clip-rule="evenodd" d="m234.44 25.97-195.3 203.46h237.93l195.3-203.46zm-112.29 393.21v-70.3l-80.23 83.59zm358.26-178.38-194.77 202.95v31.31l194.77-202.95zm-199.79 49.19c1.31-.22 2.45-.87 3.31-1.78l.04.01 93.38-97.33v17.92c0 2.93 2.12 5.44 5.02 5.92l91.83 15.21-196.73 204.96-94.93-15.72v-112.96zm-6.98-48.56v37.55l-98.04 16.23c-2.9.48-5.02 2.98-5.02 5.92v123.14c0 2.94 2.12 5.44 5.02 5.92l98.04 16.23v37.55h-242.58v-37.55l98.08-16.23c2.86-.48 5.02-2.98 5.02-5.92v-123.14c0-2.94-2.16-5.44-5.02-5.92l-98.08-16.23v-37.55zm206.77-206.54v31.31l-194.77 202.95v-31.31z" fill-rule="evenodd"></path></svg>