<svg id="fi_3639520" enable-background="new 0 0 512 512" height="60px" fill="#008bd0" viewBox="0 0 512 512" width="60px" xmlns="http://www.w3.org/2000/svg"><g><g id="Page-1_47_"><g id="_x30_48---Warehouse-Forklft"><path id="Shape_259_" d="m506.735 103.048-247.467-102.4c-2.094-.862-4.443-.862-6.537 0l-247.466 102.4c-3.188 1.322-5.266 4.434-5.265 7.885v122.453c0 4.713 3.821 8.533 8.533 8.533s8.533-3.821 8.533-8.533v-103.16l34.244 31.13c0 .265-.111.512-.111.777v68.267c0 4.713 3.821 8.533 8.533 8.533s8.533-3.821 8.533-8.533v-53.623l25.6 23.27v30.353c0 4.713 3.821 8.533 8.533 8.533 4.713 0 8.533-3.821 8.533-8.533v-28.297l145.069-56.414 145.067 56.414v62.43h-17.067c-1.832.039-3.601.677-5.035 1.818l-.085-.111-34.133 25.6c-2.149 1.612-3.413 4.141-3.413 6.827v196.267h-76.8c-4.713 0-8.533 3.82-8.533 8.533s3.821 8.533 8.533 8.533h230.4c9.426 0 17.067-7.641 17.067-17.067v-384c0-3.452-2.078-6.564-5.266-7.885zm-32.282 178.551-30.72 19.721-30.677-19.721zm-74.675 145.067 43.955-28.254 43.955 28.254-43.955 28.254zm28.16 38.4-35.405 22.775v-45.551zm-35.405-54.025v-45.551l35.422 22.775zm7.245-61.175 43.955-28.254 43.955 28.254-43.955 28.254zm-7.245-15.625v-45.551l35.422 22.775zm51.2 140.971 30.72 19.721h-61.355zm15.778-10.146 35.422-22.775v45.551zm0-76.8 35.422-22.775v45.551zm0-76.8 35.422-22.775v45.551zm35.422-46.934h-34.133v-102.4c0-.265-.085-.512-.111-.777l34.244-31.13zm-470.698-150.869 42.752-17.69 26.394 42.266-28.527 12.365zm58.743-24.303 39.45-16.324 17.92 44.757-31.121 13.525zm219.742-1.553-38.187-16.597v-49.878l46.78 19.354zm24.747-40.482 46.362 19.183-17.818 44.476-37.223-16.214zm-80 23.885-38.187 16.597-8.593-47.155 46.78-19.319zm-54.255 23.586-37.222 16.213-17.75-44.501 46.362-19.183zm-46.55 38.844 12.553 31.377-23.279 9.062-17.579-28.16zm15.668-6.827 34.022-14.797 6.562 35.994-27.785 10.803zm50.09-21.777 35.046-15.223v40.883l-28.365 11.034zm52.113-15.224 35.046 15.241-6.682 36.693-28.365-11.051v-40.883zm51.115 22.187 34.022 14.797-12.8 32-27.785-10.803zm49.69 21.606 28.305 12.314-17.579 28.16-23.279-9.054zm6.34-15.846 17.92-44.757 39.45 16.324-26.274 41.993zm73.335-21.82 42.752 17.69-40.619 36.975-28.527-12.365zm-340.778 90.454-25.532-23.211 23.825-10.359 17.212 27.537zm288.025-6.033 17.212-27.537 23.825 10.359-25.532 23.211zm25.873 19.686 25.6-23.27v87.757h-25.6zm-59.733 102.886 17.067-12.8v204.8h-17.067z"></path><path id="Shape_258_" d="m85.333 477.866c-.036-2.885-.443-5.753-1.212-8.533h87.757c-.768 2.781-1.176 5.649-1.212 8.533 0 18.851 15.282 34.133 34.133 34.133s34.133-15.282 34.133-34.133h59.733c14.138 0 25.6-11.462 25.6-25.6s-11.462-25.6-25.6-25.6h-42.665v-162.134c0-14.138-11.461-25.6-25.6-25.6-14.138 0-25.6 11.462-25.6 25.6v70.827l-28.075-32.759c9.166-6.39 13.129-17.987 9.79-28.65s-13.208-17.929-24.382-17.95h-136.533c-12.454-.024-23.109 8.939-25.219 21.212-2.11 12.274 4.939 24.28 16.686 28.418v79.94c-10.192 3.602-17.022 13.219-17.067 24.029v34.133c.054 11.405 7.647 21.398 18.62 24.508-.983 3.116-1.506 6.359-1.553 9.626 0 18.851 15.282 34.133 34.133 34.133s34.133-15.282 34.133-34.133zm119.467 17.066c-9.426 0-17.067-7.641-17.067-17.067s7.641-17.067 17.067-17.067 17.067 7.641 17.067 17.067-7.641 17.067-17.067 17.067zm17.067-230.4c0-4.713 3.82-8.533 8.533-8.533s8.533 3.82 8.533 8.533v170.667c0 4.713 3.821 8.533 8.533 8.533h51.2c4.713 0 8.533 3.82 8.533 8.533s-3.82 8.533-8.533 8.533h-64.478c-2.976-5.101-7.221-9.346-12.322-12.322v-183.944zm-17.067 145.067h-25.6v-34.133c-.001-1.936-.66-3.813-1.869-5.325l-14.959-18.714 4.497-2.995c3.921-2.616 4.979-7.915 2.364-11.836-2.616-3.921-7.915-4.979-11.836-2.364l-25.6 17.067c-3.921 2.616-4.979 7.915-2.364 11.836 2.616 3.921 7.915 4.979 11.836 2.364l6.827-4.574 14.037 17.536v31.138h-35.601c-2.263 0-4.433-.9-6.033-2.5l-18.099-18.099v-39.134c0-14.138-11.462-25.6-25.6-25.6s-25.6 11.462-25.6 25.6v34.133h-17.067v-76.8h124.083l46.583 54.349v48.051zm-119.467-25.6h-17.066v-34.133c0-4.713 3.821-8.533 8.533-8.533 4.713 0 8.533 3.82 8.533 8.533zm-59.733-110.933h136.533c4.713 0 8.533 3.821 8.533 8.533s-3.821 8.533-8.533 8.533h-136.533c-4.713 0-8.533-3.82-8.533-8.533s3.82-8.533 8.533-8.533zm-8.533 136.533c0-4.713 3.821-8.533 8.533-8.533h64.734l18.099 18.099c4.788 4.819 11.306 7.52 18.099 7.501h78.268v17.067c-8.238.028-16.182 3.062-22.34 8.533h-108.92c-12.721-11.378-31.96-11.378-44.681 0h-3.259c-4.713 0-8.533-3.82-8.533-8.533zm17.066 68.267c0-9.426 7.641-17.067 17.067-17.067s17.067 7.641 17.067 17.067-7.641 17.067-17.067 17.067c-4.526 0-8.867-1.798-12.068-4.999s-4.999-7.542-4.999-12.068z"></path></g></g></g></svg>