<svg xmlns="http://www.w3.org/2000/svg" version="1.1" xmlns:xlink="http://www.w3.org/1999/xlink" width="512" height="512" x="0" y="0" viewBox="0 0 128 128" style="enable-background:new 0 0 512 512" xml:space="preserve" class=""><g><path d="M74 115.998a2 2 0 0 0 0-4H64v-4.001h4a2 2 0 0 0 0-4.001H56v-4a4.005 4.005 0 0 0-4-4.002h-1V35.982h1a4.005 4.005 0 0 0 4-4V25.98a2 2 0 0 0-2-2H32a2 2 0 0 0-2 2v6.001a4.005 4.005 0 0 0 4 4.001h1v60.012h-1a4.005 4.005 0 0 0-4 4.001v4h-4v-4a4.005 4.005 0 0 0-4-4h-1V35.981h1a4.005 4.005 0 0 0 4-4V25.98a2 2 0 0 0-2-2H2a2 2 0 0 0-2 2v6.001a4.005 4.005 0 0 0 4 4.001h1v60.012H4a4.005 4.005 0 0 0-4 4.001V122a2 2 0 0 0 2 2h72a2 2 0 0 0 0-4H64v-4.002ZM4 31.981v-4h18.001l.001 4Zm13 4.001v60.012H9V35.982ZM4 99.995h18v4H4ZM12 120H4v-4h8Zm0-8.001H4v-4.001h8Zm12 8.001h-8v-4h8Zm0-8.001h-8v-4.001h8ZM34 31.98v-4h18.001l.001 4Zm13 4.001v60.012h-8V35.982ZM34 99.995h18v4H34ZM36 120h-8v-4h8Zm0-8.001h-8v-4.001h8Zm12 8.001h-8v-4h8Zm0-8.001h-8v-4.001h8Zm12 8.001h-8v-4h8Zm0-8.001h-8v-4.001h8Z" fill="#ffffff" opacity="1" data-original="#000000" class=""></path><path d="M126.839 83.182 74.324 4.862a2.057 2.057 0 0 0-2.802-.529s-7.638 5.305-7.663 5.322A2.103 2.103 0 0 0 63 11.298v36.686h-3a4.005 4.005 0 0 0-4 4.001v10.002a4.005 4.005 0 0 0 4 4.001h10a4.005 4.005 0 0 0 4-4V51.984a4.005 4.005 0 0 0-4-4h-3V18.666l37.698 64.325h-.394a5.996 5.996 0 0 0-3.958 1.491L84.723 98.2A7.999 7.999 0 0 0 82 104.213v10.785A4.005 4.005 0 0 0 86 119h2.295a6.995 6.995 0 0 0 13.41 0h6.59a6.995 6.995 0 0 0 13.41 0H124a4.005 4.005 0 0 0 4-4V84.991a1.997 1.997 0 0 0-1.161-1.81ZM70 51.985l.002 10.002H60V51.985Zm-2.338-40.1 3.603-2.503 2.372 12.697Zm8.751 3.275L91.59 37.795l-12.097-6.15Zm6.47 22.697 12.152 6.177.826 15.967Zm16.431 11.458 17.624 26.284-16.717-8.754Zm4.222 23.782 18.068 9.461.29.434h-12.56Zm-.551 14.393a2 2 0 0 1 1.32-.498H113v13.003H88.74ZM95 120a3 3 0 1 1 3-3.001 3.004 3.004 0 0 1-3 3Zm20 0a3 3 0 1 1 3-3.001 3.004 3.004 0 0 1-3 3Zm9-5.002h-2.295a6.995 6.995 0 0 0-13.41 0h-6.59a6.995 6.995 0 0 0-13.41 0H86v-10.785c0-.074.02-.144.023-.217H113a4.005 4.005 0 0 0 4-4V86.991h7Z" fill="#ffffff" opacity="1" data-original="#000000" class=""></path></g></svg>